<?xml version="1.0" encoding="UTF-8"?>
<svg xmlns="http://www.w3.org/2000/svg"
     version="1.2"
     baseProfile="tiny-ps"
     viewBox="0 0 512 512"
     width="512"
     height="512">
  <title>Tal Barahi Handicraft</title>
  <circle cx="256" cy="256" r="256" fill="#FDF9F7"/>
  <g fill="#8B2C2C">
    <path d="M 287.750 109.662 C 288.438 109.940, 289.563 109.940, 290.250 109.662 C 290.938 109.385, 290.375 109.158, 289 109.158 C 287.625 109.158, 287.063 109.385, 287.750 109.662 M 76.395 158.841 C 67.862 164.208, 63.297 183.020, 68.045 193.250 C 69.255 195.858, 69.675 196, 76.161 196 C 82.007 196, 83 195.746, 83.001 194.250 C 83.002 190.943, 88.696 180.470, 93.875 174.246 C 98.987 168.103, 99.038 167.975, 97.545 165.087 C 93.912 158.061, 82.836 154.790, 76.395 158.841 M 126.124 161.519 C 108.935 166.329, 95.013 178.562, 88.522 194.557 L 86.110 200.500 79.501 201.173 C 75.866 201.543, 72.266 202.365, 71.501 202.999 C 70.736 203.634, 69.626 206.482, 69.035 209.327 C 67.577 216.341, 64.066 223.587, 59.503 229 C 54.810 234.568, 53.399 237.855, 52.463 245.404 L 51.731 251.309 56.161 250.702 C 58.597 250.368, 61.358 249.800, 62.295 249.440 C 63.233 249.080, 64 249.213, 64 249.736 C 64 250.649, 60.032 252.873, 55.177 254.680 L 52.854 255.544 54.999 258.272 C 57.720 261.731, 59.479 261.693, 70.508 257.940 C 76.590 255.870, 83.060 254.548, 90.500 253.854 C 109.560 252.076, 110 251.773, 110 240.450 C 110 228.490, 111.442 226.899, 125.767 223.055 C 130.618 221.753, 136.361 217.136, 138.661 212.689 C 140.921 208.318, 144.011 198.998, 143.196 199.010 C 140.878 199.044, 122.043 206.368, 118.863 208.472 L 115.041 211.001 113.065 207.128 L 111.090 203.255 114.436 199.346 C 116.277 197.196, 120.194 194.101, 123.141 192.468 C 127.760 189.910, 129.547 189.500, 136.078 189.500 C 142.767 189.500, 144.231 189.855, 148.547 192.524 C 158.253 198.524, 162.072 208.529, 158.934 219.736 C 157.227 225.834, 148.687 235, 144.712 235 C 141.753 235, 140.381 232.020, 141.248 227.482 C 141.885 224.149, 140.042 224.303, 136.626 227.868 C 132.021 232.675, 132.967 240.967, 138.537 244.616 C 144.864 248.762, 162.222 243.613, 170.719 235.069 C 182.542 223.181, 184.322 203.738, 175.301 185 C 171.345 176.783, 160.059 165.905, 152.500 163.022 C 144.857 160.108, 133.483 159.460, 126.124 161.519 M 208.672 215.899 L 189.844 216.500 187.960 221.853 C 183.823 233.609, 175.110 243.210, 163.302 249.023 C 152.303 254.438, 141.508 254.019, 134.548 247.908 C 130.433 244.295, 128.722 239.628, 129.169 233.238 L 129.500 228.500 124.121 228.550 C 119.584 228.592, 118.387 229.012, 116.477 231.232 C 114.398 233.649, 114.256 234.560, 114.745 242.396 C 115.538 255.111, 112.914 257.984, 98.553 260.120 C 91.129 261.224, 91 261.293, 91 264.164 C 91 269.502, 94.128 282.402, 97.239 289.898 C 103.736 305.551, 116.773 320.742, 130.617 328.794 C 145.057 337.192, 151.502 349.520, 152.683 371 C 153.391 383.897, 152.078 390.827, 147.478 398.466 C 142.086 407.421, 142.125 407.506, 151.707 407.465 C 159.023 407.433, 160.200 407.162, 162.552 404.965 C 167.340 400.491, 168.355 397.304, 168.160 387.353 C 168.046 381.589, 168.740 374.192, 170.034 367.353 C 174.702 342.687, 175.307 342.005, 190.213 344.611 C 197.083 345.813, 203.055 346.100, 213.157 345.716 L 226.815 345.196 229.528 351.242 C 231.819 356.348, 232.143 358.125, 231.609 362.668 C 230.832 369.282, 223.200 388.636, 217.913 397.403 C 215.761 400.971, 214 404.084, 214 404.320 C 214 405.374, 220.985 405.988, 226.230 405.394 C 235.156 404.385, 239.795 398.689, 240.734 387.588 C 241.101 383.260, 242.700 378.202, 246.265 370.096 C 249.023 363.825, 251.497 356.773, 251.761 354.427 C 252.213 350.421, 251.963 349.889, 247.676 345.723 C 245.164 343.282, 242.811 340.096, 242.446 338.642 C 242.024 336.958, 241.102 336, 239.904 336 C 236.588 336, 218.726 329.872, 211.594 326.288 C 195.552 318.227, 185 302.836, 185 287.500 C 185 276.977, 190.479 264.956, 197.987 259.011 C 212.977 247.138, 233.506 247.506, 245.869 259.869 C 260.612 274.612, 255.784 297.728, 236.659 303.963 C 230.312 306.032, 220.031 304.948, 215.110 301.692 C 206.402 295.929, 204.866 286.390, 211.484 279.169 C 214.499 275.879, 215.364 275.500, 219.857 275.500 C 224.058 275.500, 225.378 275.985, 228.020 278.500 C 233.195 283.426, 233.726 285.539, 228.913 282.052 C 222.163 277.162, 216.066 278.203, 213.348 284.710 C 211.450 289.252, 212.878 293.143, 217.488 295.992 C 225.556 300.979, 236.433 298.860, 241.378 291.338 C 243.851 287.578, 246.174 279.858, 245.505 277.627 C 245.319 277.007, 244.898 275.271, 244.569 273.768 C 243.671 269.668, 238.141 263.975, 232.507 261.351 C 214.807 253.109, 194.615 267.576, 194.615 288.500 C 194.615 300.010, 200.132 308.891, 211.376 315.480 C 218.421 319.609, 234.273 324.977, 247 327.543 C 256.762 329.512, 258.802 330.257, 260.500 332.471 C 266.212 339.922, 270.220 343.807, 277.352 348.806 C 287.287 355.769, 291.720 360.332, 292.988 364.897 C 294.476 370.253, 294.222 386.946, 292.569 392.438 C 291.781 395.054, 289.981 398.941, 288.569 401.076 C 284.419 407.346, 284.779 407.703, 294.750 407.202 C 304.181 406.729, 305.267 406.259, 307.778 401.573 C 309.147 399.018, 309.434 395.046, 309.481 378 C 309.522 362.968, 309.929 356.201, 311.007 352.631 L 312.478 347.763 309.380 345.131 C 307.676 343.684, 305.768 341.517, 305.141 340.316 C 303.564 337.296, 303.711 320.883, 305.487 301.624 C 306.306 292.756, 307.093 282.800, 307.237 279.500 L 307.500 273.500 312 282 L 316.500 290.500 316.791 281.606 C 316.951 276.715, 316.574 270.263, 315.952 267.269 C 313.512 255.517, 300.102 233.798, 291.316 227.369 C 287.769 224.774, 276.293 220.550, 265.500 217.868 C 256.231 215.564, 238.460 214.948, 208.672 215.899 M 409 220.500 C 410.292 221.875, 411.574 223, 411.849 223 C 412.124 223, 411.292 221.875, 410 220.500 C 408.708 219.125, 407.426 218, 407.151 218 C 406.876 218, 407.708 219.125, 409 220.500 M 346.250 259.746 C 351.613 259.925, 360.387 259.925, 365.750 259.746 C 371.113 259.566, 366.725 259.419, 356 259.419 C 345.275 259.419, 340.887 259.566, 346.250 259.746 M 396.292 259.742 C 400.027 259.935, 405.877 259.934, 409.292 259.739 C 412.706 259.545, 409.650 259.387, 402.500 259.389 C 395.350 259.390, 392.556 259.550, 396.292 259.742 M 422.250 259.742 C 425.962 259.934, 432.038 259.934, 435.750 259.742 C 439.462 259.549, 436.425 259.392, 429 259.392 C 421.575 259.392, 418.538 259.549, 422.250 259.742 M 369 279.500 C 375.858 286.375, 381.695 292, 381.970 292 C 382.245 292, 376.858 286.375, 370 279.500 C 363.142 272.625, 357.305 267, 357.030 267 C 356.755 267, 362.142 272.625, 369 279.500 M 406.971 285.750 L 400.500 292.500 407.250 286.029 C 410.962 282.470, 414 279.432, 414 279.279 C 414 278.543, 412.982 279.480, 406.971 285.750 M 411 296.500 C 412.866 298.425, 414.617 300, 414.892 300 C 415.167 300, 413.866 298.425, 412 296.500 C 410.134 294.575, 408.383 293, 408.108 293 C 407.833 293, 409.134 294.575, 411 296.500 M 440.924 298.750 L 438.500 301.500 441.250 299.076 C 442.762 297.742, 444 296.505, 444 296.326 C 444 295.541, 443.190 296.180, 440.924 298.750 M 427.481 312.250 L 417.500 322.500 427.750 312.519 C 437.270 303.248, 438.455 302, 437.731 302 C 437.583 302, 432.971 306.613, 427.481 312.250 M 377.946 321.750 L 374.500 325.500 378.250 322.054 C 380.313 320.158, 382 318.471, 382 318.304 C 382 317.540, 381.154 318.260, 377.946 321.750 M 310.158 328 C 310.158 329.375, 310.385 329.938, 310.662 329.250 C 310.940 328.563, 310.940 327.438, 310.662 326.750 C 310.385 326.063, 310.158 326.625, 310.158 328 M 121.377 349.250 C 121.185 377.852, 119.693 384.491, 110.246 398.792 C 108.323 401.702, 107.070 404.402, 107.461 404.792 C 108.586 405.912, 123.484 405.347, 125.824 404.094 C 129.738 402, 133.160 394.552, 134.110 386.063 C 134.594 381.734, 136.597 372.637, 138.561 365.847 C 142.566 352, 142.468 350.283, 137.201 341.978 C 135.136 338.722, 132.639 336.553, 128.277 334.228 C 124.946 332.453, 122.058 331, 121.860 331 C 121.662 331, 121.445 339.213, 121.377 349.250"/>
  </g>
  <g fill="#2B2B29">
    <path d="M 285.766 110.136 C 284.112 110.753, 279.807 115.333, 274.869 121.730 C 267.779 130.914, 258.715 141.735, 245.753 156.488 L 242.249 160.477 235.126 153.758 C 231.209 150.063, 226.880 146.757, 225.507 146.412 C 221.654 145.445, 217.056 148.287, 198.805 162.915 L 182.110 176.295 183.978 179.958 C 186.150 184.215, 189 194.644, 189 198.335 C 189 202.923, 190.693 202.085, 196.268 194.739 C 202.730 186.224, 219.719 168, 221.195 168 C 221.759 168, 224.758 170.327, 227.860 173.172 C 239.352 183.710, 255.579 192.618, 266.618 194.448 C 269.981 195.006, 270.856 194.818, 271.391 193.422 C 271.752 192.483, 271.924 191.649, 271.774 191.569 C 271.623 191.489, 269.025 189.560, 266 187.282 C 261.324 183.761, 255.743 177.953, 250.177 170.815 C 249.023 169.336, 250.353 167.385, 261.084 154.815 C 276.628 136.608, 284.990 128, 287.135 128 C 289.220 128, 301.822 144.958, 324.525 178.311 C 343.762 206.573, 347.033 210.698, 351.784 212.683 C 356.185 214.522, 358.318 213.214, 364.789 204.713 C 367.380 201.308, 371.549 196.330, 374.054 193.650 L 378.609 188.779 404.554 215.455 C 418.824 230.128, 430.650 242.552, 430.833 243.066 C 431.037 243.638, 408.450 244, 372.583 244 C 340.362 244, 314 244.255, 314 244.566 C 314 244.877, 314.466 246.002, 315.035 247.066 C 316.042 248.947, 317.819 249, 380.035 249 L 444 249 444 246.087 C 444 244.007, 441.527 239.788, 435.357 231.337 C 430.604 224.827, 423.554 214.775, 419.692 209 C 409.213 193.330, 393.244 172.311, 386.854 165.775 C 382.081 160.893, 380.661 160, 377.668 160 C 374.487 160, 373.527 160.734, 368.189 167.250 C 364.923 171.238, 361.310 175.343, 360.161 176.373 C 358.098 178.221, 358.008 178.193, 353.286 174.239 C 344.057 166.511, 325.381 146.335, 312.793 130.492 C 297.299 110.994, 292.718 107.543, 285.766 110.136 M 319.888 256.750 C 320.415 257.712, 322.814 260.416, 325.219 262.758 L 329.592 267.016 332.992 263.508 L 336.392 260 356 260 L 375.608 260 379.006 263.506 L 382.404 267.012 385.952 263.560 L 389.500 260.108 402.252 259.804 C 409.265 259.637, 415.003 259.730, 415.002 260.012 C 415.001 260.293, 407.800 267.713, 399 276.500 L 382.999 292.477 399.238 308.739 L 415.477 325 402.531 325 L 389.584 325 385.792 321.297 L 382 317.594 378.208 321.297 L 374.416 325 356 325 L 337.584 325 333.792 321.297 L 330 317.594 326.208 321.297 C 322.758 324.666, 321.916 325, 316.875 325 C 310.634 325, 310.007 325.312, 310.725 328.058 C 311.222 329.956, 312.734 330, 377.617 330 L 444 330 443.921 326.250 C 443.878 324.188, 443.615 323.063, 443.338 323.750 C 442.969 324.664, 439.167 325, 429.180 325 L 415.526 325 429.763 310.737 C 448.907 291.560, 448.895 293.359, 430 274.500 C 422.300 266.815, 415.999 260.296, 415.998 260.013 C 415.997 259.731, 422.298 259.725, 430 260 L 444.004 260.500 444.002 257.750 L 444 255 381.465 255 C 322.209 255, 318.980 255.092, 319.888 256.750 M 342.995 279.505 L 330.520 292.010 343.519 305.010 L 356.519 318.010 369.495 305.005 L 382.471 292.001 370 279.500 C 363.142 272.625, 357.067 267, 356.500 267 C 355.933 267, 349.856 272.627, 342.995 279.505 M 402.736 279.764 L 389.999 292.528 402.764 305.264 L 415.528 318.001 428.264 305.236 L 441.001 292.472 428.236 279.736 L 415.472 266.999 402.736 279.764 M 347.231 282.268 C 342.154 287.366, 338 291.989, 338 292.540 C 338 293.819, 355.218 311, 356.500 311 C 357.806 311, 375 293.807, 375 292.501 C 375 291.929, 370.829 287.307, 365.731 282.230 L 356.461 272.999 347.231 282.268 M 408.225 285.274 L 400.998 292.549 408.274 299.775 L 415.549 307.002 422.775 299.726 L 430.002 292.451 422.726 285.225 L 415.451 277.998 408.225 285.274 M 410.981 288.520 L 407.569 292.040 411.566 296.036 L 415.562 300.033 419.481 296.020 L 423.399 292.007 420.003 288.503 C 418.136 286.577, 416.109 285, 415.500 285 C 414.891 285, 412.857 286.584, 410.981 288.520 M 353.196 289.298 L 349.994 292.602 353.298 295.804 L 356.602 299.006 359.804 295.702 L 363.006 292.398 359.702 289.196 L 356.398 285.994 353.196 289.298 M 325 289.269 C 325 290.159, 322.582 293.174, 319.627 295.969 C 315.620 299.758, 314.102 301.984, 313.658 304.723 C 313.330 306.742, 313.184 308.517, 313.333 308.667 C 313.483 308.816, 317.307 305.218, 321.831 300.670 L 330.056 292.402 327.528 290.026 C 325.511 288.132, 325 287.979, 325 289.269 M 311 337.168 C 311 337.536, 311.273 338.548, 311.607 339.418 C 312.152 340.838, 318.944 341, 378.107 341 L 444 341 444 338.750 L 444 336.500 377.500 336.500 C 340.925 336.500, 311 336.801, 311 337.168"/>
  </g>
</svg>